<?xml version="1.0" standalone="no"?>
<!DOCTYPE svg PUBLIC "-//W3C//DTD SVG 20010904//EN"
 "http://www.w3.org/TR/2001/REC-SVG-20010904/DTD/svg10.dtd">
<svg version="1.0" xmlns="http://www.w3.org/2000/svg"
 width="200.000000pt" height="200.000000pt" viewBox="0 0 200.000000 200.000000"
 preserveAspectRatio="xMidYMid meet">

<g transform="translate(0.000000,200.000000) scale(0.100000,-0.100000)"
fill="#000000" stroke="none">
<path d="M933 1958 c-11 -18 -225 -389 -476 -824 l-457 -791 0 -172 0 -171
475 0 c261 0 475 2 475 5 0 5 -159 283 -200 350 l-19 30 223 385 222 385 131
5 130 5 -234 405 c-129 223 -238 409 -242 413 -5 5 -17 -7 -28 -25z"/>
<path d="M1217 963 c-20 -38 -52 -96 -72 -130 l-35 -63 370 0 370 0 0 130 0
130 -298 0 -298 0 -37 -67z"/>
<path d="M989 568 c-24 -40 -55 -95 -71 -121 -15 -26 -28 -50 -28 -52 0 -3
250 -5 555 -5 l555 0 0 125 0 125 -485 0 -484 0 -42 -72z"/>
<path d="M979 223 c11 -21 44 -78 73 -128 l54 -90 437 -3 437 -2 0 130 0 130
-510 0 -510 0 19 -37z"/>
</g>
</svg>
